<svg data-v-6805eed4="" version="1.0" xmlns="http://www.w3.org/2000/svg" xmlns:xlink="http://www.w3.org/1999/xlink" width="100%" height="100%" viewBox="0 0 340.000000 250.000000" preserveAspectRatio="xMidYMid meet" color-interpolation-filters="sRGB" style="margin: auto;"> <rect data-v-6805eed4="" x="0" y="0" width="100%" height="100%" fill="#FFFFFF" fill-opacity="0" class="background"></rect> <!----> <g data-v-6805eed4="" class="iconmbgsvg" transform="translate(87.29000091552734,68.69087219238281)"><g fill="#000000" hollow-target="textNormalTran"><g opacity="1" transform="matrix(1,0,0,1,26.459999084472656,0)" mask="url(#1ed505d4-7159-4468-9635-6a695a7c6a25)"><g><rect fill="#000000" fill-opacity="0" stroke-width="2" x="0" y="0" width="112.5" height="112.6182491616197" class="image-rect"></rect> <svg x="0" y="0" width="112.5" height="112.6182491616197" filtersec="colorsb571126457" class="image-svg-svg primary" style="overflow: visible;"><svg version="1.1" id="图层_1" xmlns="http://www.w3.org/2000/svg" xmlns:xlink="http://www.w3.org/1999/xlink" x="0px" y="0px" viewBox="1.3700000047683716 0.9987536668777466 97.8899917602539 97.99299621582031" enable-background="new 0 0 100 100" xml:space="preserve">
<path fill="#068259" d="M45.52,78.63c-11.04,0.69-19.11-6.76-23.98-15.36C10.05,42.98,16.22,12,41.49,3.15
	c3.78-1.32,7.51-2,11.15-2.13c25.21-0.84,46.62,23.36,46.62,49.12c0,17.73-9.15,33.28-22.92,42.07c8.1-8.86,13.05-20.72,13.05-33.76
	c0-10.28-3.28-21.56-10.57-30.34c-5.47-6.58-13.3-11-22.23-11c-16.49,0-29.86,16.37-29.86,31.57c0,10.46,3.51,18.19,9.15,23.58
	C39.56,75.79,43.77,77.86,45.52,78.63L45.52,78.63z"></path>
<path fill="#068259" d="M55.11,21.37c11.04-0.69,19.11,6.76,23.98,15.36c11.49,20.29,5.32,51.27-19.96,60.12
	c-3.77,1.32-7.51,2-11.15,2.12C22.78,99.82,1.37,75.62,1.37,49.85c0-17.73,9.15-33.28,22.92-42.07
	c-8.1,8.86-13.05,20.72-13.05,33.76c0,10.28,3.28,21.56,10.57,30.34c5.47,6.58,13.3,11,22.23,11c16.49,0,29.86-16.37,29.86-31.57
	c0-10.46-3.51-18.19-9.14-23.58C61.08,24.21,56.88,22.14,55.11,21.37L55.11,21.37z"></path>
</svg></svg> <!----></g><rect v-gra="id" width="124.5" height="124.61825561523438" transform="translate(-6, -6)" style="pointer-events:none;" fill="url(#Mf-dW832gYpf2tv6us105)"></rect></g> <g transform="translate(0,42.2241268157959)"><g data-gra="path-name" fill-rule="" class="tp-name" transform="matrix(1,0,0,1,0,0)" opacity="1"><g transform="scale(1)"><g><path d="M6.22-17.49L6.22-3.09Q6.54-3.06 7.08-3.05 7.61-3.03 8.54-3.03L8.54-3.03Q12.31-3.03 14.17-4.95 16.03-6.87 16.03-10.32L16.03-10.32Q16.03-13.83 14.22-15.7 12.4-17.58 8.6-17.58L8.6-17.58Q6.93-17.58 6.22-17.49L6.22-17.49ZM19.96-10.32L19.96-10.32Q19.96-7.64 19.12-5.67 18.29-3.69 16.76-2.36 15.23-1.04 13.07-0.4 10.91 0.24 8.3 0.24L8.3 0.24Q7.05 0.24 5.47 0.13 3.9 0.03 2.47-0.3L2.47-0.3 2.47-20.31Q3.9-20.64 5.5-20.73 7.11-20.82 8.36-20.82L8.36-20.82Q10.94-20.82 13.09-20.21 15.23-19.6 16.76-18.31 18.29-17.01 19.12-15.03 19.96-13.06 19.96-10.32ZM29-2.53L29-2.53Q30.66-2.53 31.53-2.71L31.53-2.71 31.53-6.69Q31.23-6.78 30.66-6.87 30.1-6.96 29.41-6.96L29.41-6.96Q28.82-6.96 28.21-6.87 27.6-6.78 27.11-6.54 26.62-6.31 26.32-5.87 26.02-5.44 26.02-4.79L26.02-4.79Q26.02-3.51 26.83-3.02 27.63-2.53 29-2.53ZM28.7-15.94L28.7-15.94Q30.48-15.94 31.7-15.5 32.92-15.05 33.65-14.25 34.38-13.44 34.69-12.3 35.01-11.15 35.01-9.78L35.01-9.78 35.01-0.36Q34.17-0.18 32.49 0.07 30.81 0.33 28.7 0.33L28.7 0.33Q27.3 0.33 26.14 0.06 24.98-0.21 24.16-0.8 23.35-1.4 22.89-2.35 22.42-3.3 22.42-4.7L22.42-4.7Q22.42-6.04 22.95-6.96 23.47-7.88 24.36-8.46 25.25-9.04 26.42-9.29 27.6-9.55 28.88-9.55L28.88-9.55Q29.47-9.55 30.13-9.47 30.78-9.4 31.53-9.22L31.53-9.22 31.53-9.81Q31.53-10.44 31.38-11 31.23-11.57 30.86-12 30.48-12.43 29.87-12.67 29.27-12.91 28.34-12.91L28.34-12.91Q27.09-12.91 26.05-12.73 25.01-12.55 24.36-12.31L24.36-12.31 23.91-15.23Q24.6-15.47 25.9-15.7 27.21-15.94 28.7-15.94ZM39.41 0L39.41-15.05Q40.45-15.35 42.11-15.61 43.78-15.88 45.8-15.88L45.8-15.88Q47.7-15.88 48.98-15.36 50.26-14.84 51.02-13.9 51.78-12.97 52.09-11.64 52.4-10.32 52.4-8.74L52.4-8.74 52.4 0 48.81 0 48.81-8.18Q48.81-9.43 48.64-10.31 48.48-11.18 48.11-11.73 47.73-12.28 47.09-12.54 46.46-12.79 45.53-12.79L45.53-12.79Q44.85-12.79 44.11-12.7 43.36-12.61 43.01-12.55L43.01-12.55 43.01 0 39.41 0ZM60.43-15.55L60.43 0 56.84 0 56.84-15.55 60.43-15.55ZM60.82-20.1L60.82-20.1Q60.82-19.09 60.17-18.5 59.51-17.9 58.62-17.9L58.62-17.9Q57.7-17.9 57.04-18.5 56.39-19.09 56.39-20.1L56.39-20.1Q56.39-21.15 57.04-21.74 57.7-22.34 58.62-22.34L58.62-22.34Q59.51-22.34 60.17-21.74 60.82-21.15 60.82-20.1ZM64.15-7.7L64.15-7.7Q64.15-9.76 64.76-11.3 65.37-12.85 66.38-13.87 67.39-14.9 68.7-15.42 70.01-15.94 71.38-15.94L71.38-15.94Q74.59-15.94 76.39-13.95 78.19-11.96 78.19-8L78.19-8Q78.19-7.7 78.17-7.33 78.16-6.96 78.13-6.66L78.13-6.66 67.87-6.66Q68.02-4.79 69.19-3.76 70.37-2.74 72.6-2.74L72.6-2.74Q73.91-2.74 74.99-2.97 76.08-3.21 76.7-3.48L76.7-3.48 77.18-0.54Q76.88-0.39 76.36-0.22 75.84-0.06 75.17 0.07 74.5 0.21 73.73 0.3 72.95 0.39 72.15 0.39L72.15 0.39Q70.1 0.39 68.58-0.22 67.07-0.83 66.08-1.92 65.1-3 64.63-4.48 64.15-5.95 64.15-7.7ZM67.9-9.31L74.59-9.31Q74.59-10.05 74.38-10.72 74.17-11.39 73.77-11.88 73.37-12.37 72.79-12.65 72.21-12.94 71.41-12.94L71.41-12.94Q70.58-12.94 69.95-12.63 69.33-12.31 68.9-11.81 68.46-11.3 68.23-10.65 67.99-9.99 67.9-9.31L67.9-9.31ZM87.91-2.68L87.41 0.3Q85.8 0.27 84.75-0.06 83.69-0.39 83.07-1 82.44-1.61 82.19-2.51 81.94-3.42 81.94-4.58L81.94-4.58 81.94-22.48 85.54-23.08 85.54-5.26Q85.54-4.61 85.64-4.16 85.74-3.72 86.01-3.41 86.28-3.09 86.74-2.93 87.2-2.77 87.91-2.68L87.91-2.68ZM96-2.8L96-2.8Q98.03-2.8 98.95-3.48 99.87-4.16 99.87-5.41L99.87-5.41Q99.87-6.16 99.56-6.69 99.25-7.23 98.67-7.66 98.09-8.09 97.25-8.46 96.42-8.83 95.35-9.19L95.35-9.19Q94.28-9.58 93.28-10.04 92.29-10.5 91.53-11.18 90.77-11.87 90.31-12.82 89.85-13.77 89.85-15.11L89.85-15.11Q89.85-17.9 91.78-19.5 93.71-21.09 97.05-21.09L97.05-21.09Q98.98-21.09 100.48-20.66 101.98-20.22 102.84-19.72L102.84-19.72 101.68-16.68Q100.67-17.25 99.47-17.55 98.26-17.84 96.99-17.84L96.99-17.84Q95.47-17.84 94.62-17.22 93.77-16.6 93.77-15.47L93.77-15.47Q93.77-14.78 94.06-14.29 94.34-13.8 94.86-13.41 95.38-13.03 96.08-12.7 96.78-12.37 97.61-12.07L97.61-12.07Q99.07-11.54 100.21-10.99 101.36-10.44 102.15-9.68 102.93-8.92 103.35-7.9 103.77-6.87 103.77-5.41L103.77-5.41Q103.77-2.62 101.79-1.09 99.81 0.45 96 0.45L96 0.45Q94.73 0.45 93.67 0.28 92.61 0.12 91.8-0.12 90.98-0.36 90.38-0.61 89.79-0.86 89.43-1.07L89.43-1.07 90.53-4.13Q91.33-3.69 92.7-3.24 94.07-2.8 96-2.8ZM120.96-7.79L120.96-7.79Q120.96-5.95 120.42-4.43 119.89-2.91 118.9-1.84 117.92-0.77 116.54-0.18 115.16 0.42 113.49 0.42L113.49 0.42Q111.83 0.42 110.46-0.18 109.09-0.77 108.11-1.84 107.13-2.91 106.58-4.43 106.03-5.95 106.03-7.79L106.03-7.79Q106.03-9.64 106.58-11.14 107.13-12.64 108.12-13.71 109.12-14.78 110.49-15.36 111.86-15.94 113.49-15.94L113.49-15.94Q115.13-15.94 116.51-15.36 117.89-14.78 118.88-13.71 119.86-12.64 120.41-11.14 120.96-9.64 120.96-7.79ZM117.27-7.79L117.27-7.79Q117.27-10.11 116.27-11.47 115.28-12.82 113.49-12.82L113.49-12.82Q111.71-12.82 110.71-11.47 109.71-10.11 109.71-7.79L109.71-7.79Q109.71-5.44 110.71-4.07 111.71-2.71 113.49-2.71L113.49-2.71Q115.28-2.71 116.27-4.07 117.27-5.44 117.27-7.79ZM137.43-15.55L137.43-0.48Q136.39-0.21 134.73 0.07 133.06 0.36 131.07 0.36L131.07 0.36Q129.2 0.36 127.93-0.18 126.67-0.71 125.91-1.67 125.15-2.62 124.82-3.94 124.5-5.26 124.5-6.84L124.5-6.84 124.5-15.55 128.09-15.55 128.09-7.41Q128.09-4.91 128.82-3.84 129.55-2.77 131.37-2.77L131.37-2.77Q132.02-2.77 132.75-2.83 133.48-2.88 133.83-2.97L133.83-2.97 133.83-15.55 137.43-15.55ZM152.9-15.55L152.9-13.03Q152.3-12.4 151.34-11.27 150.37-10.14 149.27-8.76 148.17-7.38 147.05-5.87 145.94-4.37 145.05-3L145.05-3 153.08-3 153.08 0 140.71 0 140.71-2.23Q141.36-3.42 142.34-4.82 143.32-6.22 144.36-7.63 145.4-9.04 146.43-10.32 147.46-11.6 148.26-12.55L148.26-12.55 141.09-12.55 141.09-15.55 152.9-15.55ZM161.88-2.53L161.88-2.53Q163.55-2.53 164.41-2.71L164.41-2.71 164.41-6.69Q164.11-6.78 163.55-6.87 162.98-6.96 162.3-6.96L162.3-6.96Q161.7-6.96 161.09-6.87 160.48-6.78 159.99-6.54 159.5-6.31 159.2-5.87 158.91-5.44 158.91-4.79L158.91-4.79Q158.91-3.51 159.71-3.02 160.51-2.53 161.88-2.53ZM161.58-15.94L161.58-15.94Q163.37-15.94 164.59-15.5 165.81-15.05 166.54-14.25 167.26-13.44 167.58-12.3 167.89-11.15 167.89-9.78L167.89-9.78 167.89-0.36Q167.06-0.18 165.38 0.07 163.69 0.33 161.58 0.33L161.58 0.33Q160.19 0.33 159.03 0.06 157.87-0.21 157.05-0.8 156.23-1.4 155.77-2.35 155.31-3.3 155.31-4.7L155.31-4.7Q155.31-6.04 155.83-6.96 156.35-7.88 157.24-8.46 158.13-9.04 159.31-9.29 160.48-9.55 161.76-9.55L161.76-9.55Q162.36-9.55 163.01-9.47 163.67-9.4 164.41-9.22L164.41-9.22 164.41-9.81Q164.41-10.44 164.26-11 164.11-11.57 163.74-12 163.37-12.43 162.76-12.67 162.15-12.91 161.23-12.91L161.23-12.91Q159.98-12.91 158.94-12.73 157.9-12.55 157.24-12.31L157.24-12.31 156.79-15.23Q157.48-15.47 158.79-15.7 160.1-15.94 161.58-15.94Z" transform="translate(-2.4700000286102295, 23.079999923706055)"></path></g> <!----> <!----> <!----> <!----> <!----> <!----> <!----></g></g> <g data-gra="path-slogan" fill-rule="" class="tp-slogan" fill="#000000" transform="matrix(1,0,0,1,5,29.530000686645508)" opacity="1"><rect x="0" height="1" y="3.820000171661377" width="24.84000015258789"></rect> <rect height="1" y="3.820000171661377" width="24.84000015258789" x="130.57999801635742"></rect> <g transform="translate(27.84000015258789,0)"><g transform="scale(1)"><path d="M5.76-4.82L4.27-8.46L5.06-8.46L6.26-5.44L7.48-8.46L8.28-8.46L6.79-4.82L8.42-0.97L11.51-8.52L12.42-8.52L8.81 0L8.06 0L6.28-4.21L4.48 0L3.74 0L0.14-8.52L1.04-8.52L4.14-0.97L5.76-4.82ZM14.46-0.74L19.34-0.74L19.34 0L13.62 0L13.62-8.52L19.24-8.52L19.24-7.78L14.46-7.78L14.46-4.70L18.62-4.70L18.62-4.00L14.46-4.00L14.46-0.74ZM27.34-2.20L27.34-2.20Q27.34-1.72 27.14-1.31Q26.95-0.91 26.63-0.62Q26.30-0.32 25.87-0.16Q25.44 0 24.95 0L24.95 0L20.93 0L20.93-8.52L25.03-8.52Q25.48-8.52 25.84-8.33Q26.20-8.14 26.45-7.83Q26.70-7.52 26.84-7.13Q26.98-6.74 26.98-6.35L26.98-6.35Q26.98-5.70 26.65-5.17Q26.33-4.63 25.75-4.37L25.75-4.37Q26.48-4.15 26.91-3.56Q27.34-2.98 27.34-2.20ZM26.50-2.34L26.50-2.34Q26.50-2.65 26.39-2.95Q26.28-3.24 26.08-3.46Q25.88-3.68 25.61-3.82Q25.34-3.96 25.03-3.96L25.03-3.96L21.77-3.96L21.77-0.73L24.95-0.73Q25.27-0.73 25.55-0.86Q25.84-1.00 26.05-1.22Q26.26-1.44 26.38-1.73Q26.50-2.03 26.50-2.34ZM24.77-7.79L21.77-7.79L21.77-4.64L24.70-4.64Q25.01-4.64 25.28-4.78Q25.55-4.91 25.74-5.12Q25.93-5.34 26.04-5.62Q26.15-5.90 26.15-6.22L26.15-6.22Q26.15-6.54 26.05-6.83Q25.94-7.12 25.76-7.33Q25.57-7.54 25.32-7.66Q25.07-7.79 24.77-7.79L24.77-7.79ZM34.87 0L31.98 0L31.98-8.52L34.87-8.52Q35.89-8.52 36.65-8.18Q37.42-7.85 37.93-7.27Q38.44-6.70 38.69-5.92Q38.95-5.15 38.95-4.27L38.95-4.27Q38.95-3.30 38.66-2.51Q38.38-1.73 37.84-1.17Q37.31-0.61 36.56-0.31Q35.81 0 34.87 0L34.87 0ZM38.11-4.27L38.11-4.27Q38.11-5.04 37.90-5.68Q37.68-6.32 37.27-6.79Q36.85-7.26 36.25-7.52Q35.65-7.78 34.87-7.78L34.87-7.78L32.82-7.78L32.82-0.74L34.87-0.74Q35.66-0.74 36.27-1.01Q36.88-1.28 37.28-1.76Q37.69-2.23 37.90-2.87Q38.11-3.52 38.11-4.27ZM41.40-0.74L46.28-0.74L46.28 0L40.56 0L40.56-8.52L46.18-8.52L46.18-7.78L41.40-7.78L41.40-4.70L45.56-4.70L45.56-4.00L41.40-4.00L41.40-0.74ZM46.96-8.52L47.83-8.52L50.88-1.04L53.92-8.52L54.79-8.52L51.24 0L50.51 0L46.96-8.52ZM56.86-0.74L61.74-0.74L61.74 0L56.02 0L56.02-8.52L61.63-8.52L61.63-7.78L56.86-7.78L56.86-4.70L61.02-4.70L61.02-4.00L56.86-4.00L56.86-0.74ZM69.08 0L63.32 0L63.32-8.52L64.16-8.52L64.16-0.74L69.08-0.74L69.08 0ZM73.21 0.06L73.21 0.06Q72.32 0.06 71.59-0.31Q70.85-0.67 70.32-1.28Q69.79-1.88 69.50-2.66Q69.22-3.44 69.22-4.26L69.22-4.26Q69.22-5.11 69.52-5.89Q69.83-6.67 70.37-7.27Q70.91-7.87 71.64-8.23Q72.37-8.58 73.22-8.58L73.22-8.58Q74.11-8.58 74.85-8.20Q75.59-7.82 76.11-7.21Q76.63-6.60 76.92-5.83Q77.21-5.05 77.21-4.25L77.21-4.25Q77.21-3.40 76.90-2.62Q76.60-1.84 76.06-1.24Q75.53-0.65 74.80-0.29Q74.06 0.06 73.21 0.06ZM70.06-4.26L70.06-4.26Q70.06-3.56 70.28-2.92Q70.51-2.28 70.93-1.78Q71.35-1.28 71.93-0.99Q72.50-0.70 73.21-0.70L73.21-0.70Q73.93-0.70 74.52-1.01Q75.11-1.32 75.52-1.82Q75.92-2.33 76.15-2.96Q76.37-3.60 76.37-4.26L76.37-4.26Q76.37-4.96 76.13-5.60Q75.90-6.24 75.48-6.73Q75.06-7.22 74.48-7.52Q73.91-7.81 73.21-7.81L73.21-7.81Q72.49-7.81 71.90-7.51Q71.32-7.20 70.91-6.70Q70.50-6.19 70.28-5.56Q70.06-4.92 70.06-4.26ZM79.63 0L78.79 0L78.79-8.52L82.32-8.52Q82.87-8.52 83.33-8.29Q83.80-8.05 84.13-7.67Q84.47-7.30 84.66-6.82Q84.85-6.34 84.85-5.84L84.85-5.84Q84.85-5.32 84.67-4.83Q84.49-4.34 84.17-3.97Q83.84-3.60 83.39-3.37Q82.94-3.14 82.39-3.14L82.39-3.14L79.63-3.14L79.63 0ZM79.63-7.78L79.63-3.89L82.36-3.89Q82.73-3.89 83.03-4.05Q83.34-4.21 83.56-4.48Q83.77-4.75 83.89-5.11Q84.01-5.46 84.01-5.84L84.01-5.84Q84.01-6.24 83.87-6.59Q83.74-6.95 83.50-7.21Q83.27-7.48 82.95-7.63Q82.63-7.78 82.28-7.78L82.28-7.78L79.63-7.78ZM87.10-0.74L91.98-0.74L91.98 0L86.26 0L86.26-8.52L91.87-8.52L91.87-7.78L87.10-7.78L87.10-4.70L91.26-4.70L91.26-4.00L87.10-4.00L87.10-0.74ZM94.40 0L93.56 0L93.56-8.52L97.16-8.52Q97.72-8.52 98.18-8.29Q98.64-8.05 98.98-7.67Q99.31-7.30 99.50-6.82Q99.68-6.34 99.68-5.84L99.68-5.84Q99.68-5.38 99.55-4.95Q99.41-4.52 99.16-4.18Q98.92-3.84 98.57-3.61Q98.22-3.37 97.79-3.29L97.79-3.29L99.88 0L98.93 0L96.92-3.14L94.40-3.14L94.40 0ZM94.40-7.78L94.40-3.89L97.19-3.89Q97.56-3.89 97.87-4.05Q98.17-4.21 98.39-4.49Q98.60-4.76 98.72-5.11Q98.84-5.46 98.84-5.84L98.84-5.84Q98.84-6.23 98.71-6.58Q98.57-6.94 98.33-7.20Q98.10-7.46 97.78-7.62Q97.46-7.78 97.12-7.78L97.12-7.78L94.40-7.78Z" transform="translate(-0.14400000000000002, 8.58)"></path></g></g></g></g></g></g><defs v-gra="od"></defs><defs v-gra="id"><filter id="c3e222ce-8ae6-45cf-bbf4-2fca38914159" filterUnits="userSpaceOnUse"><feColorMatrix type="matrix" values="0 0 0 0 0.99609375  0 0 0 0 0.99609375  0 0 0 0 0.99609375  0 0 0 1 0"></feColorMatrix></filter><linearGradient x1="0" y1="0" x2="1" y2="0" id="Mf-dW832gYpf2tv6us105"><stop offset="0%" stop-color="#ff5857"></stop><stop offset="100%" stop-color="#f09819"></stop></linearGradient><filter id="42443b3f1de60f6b6fd3b6a9844b4764" filterUnits="objectBoundingBox"><feColorMatrix type="matrix" values="0 0 0 0 0.99609375  0 0 0 0 0.99609375  0 0 0 0 0.99609375  0 0 0 1 0"></feColorMatrix></filter></defs><mask v-gra="im" id="1ed505d4-7159-4468-9635-6a695a7c6a25"><g opacity="0.55" filter="url(#c3e222ce-8ae6-45cf-bbf4-2fca38914159)"><g><rect fill="#000000" fill-opacity="0" stroke-width="2" x="0" y="0" width="112.5" height="112.6182491616197" class="image-rect"></rect> <svg x="0" y="0" width="112.5" height="112.6182491616197" filtersec="colorsb571126457" class="image-svg-svg primary" style="overflow: visible;"><svg version="1.1" id="图层_1" xmlns="http://www.w3.org/2000/svg" xmlns:xlink="http://www.w3.org/1999/xlink" x="0px" y="0px" viewBox="1.3700000047683716 0.9987536668777466 97.8899917602539 97.99299621582031" enable-background="new 0 0 100 100" xml:space="preserve">
<path fill="#068259" d="M45.52,78.63c-11.04,0.69-19.11-6.76-23.98-15.36C10.05,42.98,16.22,12,41.49,3.15
	c3.78-1.32,7.51-2,11.15-2.13c25.21-0.84,46.62,23.36,46.62,49.12c0,17.73-9.15,33.28-22.92,42.07c8.1-8.86,13.05-20.72,13.05-33.76
	c0-10.28-3.28-21.56-10.57-30.34c-5.47-6.58-13.3-11-22.23-11c-16.49,0-29.86,16.37-29.86,31.57c0,10.46,3.51,18.19,9.15,23.58
	C39.56,75.79,43.77,77.86,45.52,78.63L45.52,78.63z"></path>
<path fill="#068259" d="M55.11,21.37c11.04-0.69,19.11,6.76,23.98,15.36c11.49,20.29,5.32,51.27-19.96,60.12
	c-3.77,1.32-7.51,2-11.15,2.12C22.78,99.82,1.37,75.62,1.37,49.85c0-17.73,9.15-33.28,22.92-42.07
	c-8.1,8.86-13.05,20.72-13.05,33.76c0,10.28,3.28,21.56,10.57,30.34c5.47,6.58,13.3,11,22.23,11c16.49,0,29.86-16.37,29.86-31.57
	c0-10.46-3.51-18.19-9.14-23.58C61.08,24.21,56.88,22.14,55.11,21.37L55.11,21.37z"></path>
</svg></svg> <!----></g></g></mask></svg>