<?xml version="1.0" encoding="UTF-8" standalone="no"?> <svg width="64" height="64" viewBox="0 0 64 64" fill="none" xmlns="http://www.w3.org/2000/svg">
<path d="M61 11V53C61 54.0609 60.5786 55.0783 59.8284 55.8284C59.0783 56.5786 58.0609 57 57 57H11C10.2302 56.9999 9.47693 56.777 8.83104 56.3582C8.18514 55.9395 7.67424 55.3427 7.36 54.64C7.12329 54.1256 7.00049 53.5662 7 53V11C7 9.93913 7.42143 8.92172 8.17157 8.17157C8.92172 7.42143 9.93913 7 11 7H57C57.5662 7.00049 58.1256 7.12329 58.64 7.36C59.3427 7.67424 59.9395 8.18514 60.3582 8.83104C60.777 9.47693 60.9999 10.2302 61 11V11Z" fill="#E6E7E8"/>
<path d="M59 9V51C59 52.0609 58.5786 53.0783 57.8284 53.8284C57.0783 54.5786 56.0609 55 55 55H9C8.43379 54.9995 7.87436 54.8767 7.36 54.64C7.12329 54.1256 7.00049 53.5662 7 53V11C7 9.93913 7.42143 8.92172 8.17157 8.17157C8.92172 7.42143 9.93913 7 11 7H57C57.5662 7.00049 58.1256 7.12329 58.64 7.36C58.8767 7.87436 58.9995 8.43379 59 9V9Z" fill="#D8D7DA"/>
<path d="M57 7V11H3V7C3 5.93913 3.42143 4.92172 4.17157 4.17157C4.92172 3.42143 5.93913 3 7 3H53C54.0609 3 55.0783 3.42143 55.8284 4.17157C56.5786 4.92172 57 5.93913 57 7Z" fill="#FF6243"/>
<path d="M57 11V49C57 50.0609 56.5786 51.0783 55.8284 51.8284C55.0783 52.5786 54.0609 53 53 53H7C5.93913 53 4.92172 52.5786 4.17157 51.8284C3.42143 51.0783 3 50.0609 3 49V11H57Z" fill="#E6E7E8"/>
<path d="M45 55.54L45.84 57H41.32C41.236 56.6382 41.2531 56.2602 41.3695 55.9074C41.4859 55.5547 41.6971 55.2408 41.98 55C42.0726 54.9277 42.1695 54.8609 42.27 54.8C42.4976 54.6685 42.749 54.5834 43.0097 54.5494C43.2704 54.5155 43.5352 54.5334 43.7889 54.6022C44.0426 54.6709 44.2803 54.7892 44.4881 54.9502C44.6959 55.1111 44.8699 55.3116 45 55.54V55.54Z" fill="#D8D7DA"/>
<path d="M61 53C61 54.0609 60.5786 55.0783 59.8284 55.8284C59.0783 56.5786 58.0609 57 57 57H47V47C47.0016 46.4701 47.2128 45.9623 47.5875 45.5875C47.9623 45.2128 48.4701 45.0016 49 45C49.5292 45.0039 50.0356 45.2159 50.4099 45.5901C50.7841 45.9644 50.9961 46.4708 51 47V53C51.0184 52.4754 51.235 51.9773 51.6062 51.6062C51.9773 51.235 52.4754 51.0184 53 51C53.5292 51.0039 54.0356 51.2159 54.4099 51.5901C54.7841 51.9644 54.9961 52.4708 55 53V54C55.0016 53.4701 55.2128 52.9623 55.5875 52.5875C55.9623 52.2128 56.4701 52.0016 57 52C57.2626 51.9986 57.5228 52.0501 57.765 52.1515C58.0073 52.2529 58.2266 52.402 58.41 52.59C58.4718 52.6485 58.5287 52.7121 58.58 52.78C58.8551 53.1268 59.0033 53.5573 59 54V55C59.0016 54.4701 59.2128 53.9623 59.5875 53.5875C59.9623 53.2128 60.4701 53.0016 61 53Z" fill="#D8D7DA"/>
<path d="M61 53V62H43.27L40.38 57L39.54 55.54C39.302 55.1327 39.2157 54.6544 39.2962 54.1897C39.3767 53.7249 39.6189 53.3035 39.98 53C40.0726 52.9277 40.1695 52.8609 40.27 52.8C40.4976 52.6685 40.749 52.5834 41.0097 52.5494C41.2704 52.5155 41.5352 52.5334 41.7889 52.6022C42.0426 52.6709 42.2803 52.7892 42.4881 52.9502C42.6959 53.1111 42.8699 53.3116 43 53.54L45 57V45C45.0016 44.4701 45.2128 43.9623 45.5875 43.5875C45.9623 43.2128 46.47 43.0016 47 43C47.5292 43.0039 48.0356 43.2159 48.4099 43.5901C48.7841 43.9644 48.9961 44.4708 49 45V51C49.0184 50.4754 49.235 49.9773 49.6062 49.6062C49.9773 49.235 50.4754 49.0184 51 49C51.5292 49.0039 52.0356 49.2159 52.4099 49.5901C52.7841 49.9644 52.9961 50.4708 53 51V52C53.0016 51.4701 53.2128 50.9623 53.5875 50.5875C53.9623 50.2128 54.47 50.0016 55 50C55.2626 49.9986 55.5228 50.0501 55.765 50.1515C56.0073 50.2529 56.2266 50.402 56.41 50.59C56.4718 50.6485 56.5287 50.7121 56.58 50.78C56.8551 51.1268 57.0033 51.5573 57 52V53C57.0016 52.4701 57.2128 51.9623 57.5875 51.5875C57.9623 51.2128 58.47 51.0016 59 51C59.5292 51.0039 60.0356 51.2159 60.4099 51.5901C60.7841 51.9644 60.9961 52.4708 61 53V53Z" fill="#FFC477"/>
<path d="M36.72 34.72C36.0951 37.6297 34.4916 40.2372 32.1769 42.1076C29.8621 43.9781 26.976 44.9984 24 44.9984C21.024 44.9984 18.1379 43.9781 15.8231 42.1076C13.5084 40.2372 11.9049 37.6297 11.28 34.72C11.0953 33.8251 11.0015 32.9138 11 32C11 28.5522 12.3696 25.2456 14.8076 22.8076C17.2456 20.3696 20.5522 19 24 19C27.4478 19 30.7544 20.3696 33.1924 22.8076C35.6304 25.2456 37 28.5522 37 32C36.9985 32.9138 36.9047 33.8251 36.72 34.72V34.72Z" fill="#BDDBFF"/>
<path d="M43 34C42.9995 38.162 41.4722 42.1792 38.7076 45.2904C35.943 48.4015 32.1331 50.3904 28 50.88V53H24V50.88C20.7457 50.4945 17.6722 49.1766 15.1495 47.0849C12.6268 44.9933 10.7623 42.2171 9.78068 39.0906C8.79901 35.964 8.74193 32.6203 9.61631 29.4621C10.4907 26.3039 12.2593 23.4657 14.7091 21.2891C17.159 19.1126 20.1857 17.6906 23.425 17.1942C26.6642 16.6978 29.9779 17.1483 32.9671 18.4913C35.9563 19.8343 38.4936 22.0127 40.2736 24.7642C42.0536 27.5156 43.0004 30.723 43 34V34Z" fill="#D8D7DA"/>
<path d="M27 57V61H21V53C21 52.7348 21.1054 52.4804 21.2929 52.2929C21.4804 52.1054 21.7348 52 22 52H26C26.2652 52 26.5196 52.1054 26.7071 52.2929C26.8946 52.4804 27 52.7348 27 53V57Z" fill="#1E81CE"/>
<path d="M26 47.88V52H22V47.88C23.3285 48.04 24.6715 48.04 26 47.88V47.88Z" fill="#5AAAE7"/>
<path d="M26 47.88V50.88C24.6715 51.04 23.3285 51.04 22 50.88V47.88C23.3285 48.04 24.6715 48.04 26 47.88V47.88Z" fill="#3D9AE2"/>
<path d="M41 32C40.9995 36.162 39.4722 40.1792 36.7076 43.2904C33.943 46.4015 30.1331 48.3904 26 48.88C24.6715 49.04 23.3285 49.04 22 48.88C18.7457 48.4945 15.6722 47.1766 13.1495 45.0849C10.6268 42.9933 8.76235 40.2171 7.78068 37.0906C6.79901 33.964 6.74193 30.6203 7.61631 27.4621C8.4907 24.3039 10.2593 21.4657 12.7091 19.2891C15.159 17.1126 18.1857 15.6906 21.425 15.1942C24.6642 14.6978 27.9779 15.1483 30.9671 16.4913C33.9563 17.8343 36.4936 20.0127 38.2736 22.7642C40.0536 25.5156 41.0004 28.723 41 32V32Z" fill="#5AAAE7"/>
<path d="M24 45C31.1797 45 37 39.1797 37 32C37 24.8203 31.1797 19 24 19C16.8203 19 11 24.8203 11 32C11 39.1797 16.8203 45 24 45Z" fill="#E6E7E8"/>
<path d="M27 36C26.7348 35.9999 26.4805 35.8946 26.293 35.707L24 33.414L21.707 35.707C21.5671 35.8468 21.389 35.942 21.195 35.9806C21.0011 36.0192 20.8 35.9993 20.6173 35.9237C20.4346 35.848 20.2785 35.7199 20.1686 35.5555C20.0587 35.391 20 35.1978 20 35V29H22V32.586L23.293 31.293C23.4805 31.1055 23.7348 31.0002 24 31.0002C24.2652 31.0002 24.5195 31.1055 24.707 31.293L26 32.586V29H28V35C28 35.1978 27.9415 35.3911 27.8316 35.5556C27.7218 35.72 27.5657 35.8483 27.383 35.924C27.2617 35.9746 27.1315 36.0004 27 36V36Z" fill="#FF9811"/>
<path d="M17 36C16.7348 35.9999 16.4805 35.8946 16.293 35.707L14 33.414L11.707 35.707C11.5671 35.8468 11.389 35.942 11.195 35.9806C11.0011 36.0192 10.8 35.9993 10.6173 35.9237C10.4346 35.848 10.2785 35.7199 10.1686 35.5555C10.0587 35.391 10 35.1978 10 35V29H12V32.586L13.293 31.293C13.4805 31.1055 13.7348 31.0002 14 31.0002C14.2652 31.0002 14.5195 31.1055 14.707 31.293L16 32.586V29H18V35C18 35.1978 17.9415 35.3911 17.8316 35.5556C17.7218 35.72 17.5657 35.8483 17.383 35.924C17.2617 35.9746 17.1315 36.0004 17 36Z" fill="#FF9811"/>
<path d="M37 36C36.7348 35.9999 36.4805 35.8946 36.293 35.707L34 33.414L31.707 35.707C31.5671 35.8468 31.389 35.942 31.195 35.9806C31.0011 36.0192 30.8 35.9993 30.6173 35.9237C30.4346 35.848 30.2785 35.7199 30.1686 35.5555C30.0587 35.391 30 35.1978 30 35V29H32V32.586L33.293 31.293C33.4805 31.1055 33.7348 31.0002 34 31.0002C34.2652 31.0002 34.5195 31.1055 34.707 31.293L36 32.586V29H38V35C38 35.1978 37.9415 35.3911 37.8316 35.5556C37.7218 35.72 37.5657 35.8483 37.383 35.924C37.2617 35.9746 37.1315 36.0004 37 36Z" fill="#FF9811"/>
<path d="M45 14H43V16H45V14Z" fill="#FFA733"/>
<path d="M53 14H47V16H53V14Z" fill="#FFA733"/>
<path d="M53 18H43V20H53V18Z" fill="#FFA733"/>
<path d="M49 22H43V24H49V22Z" fill="#FFA733"/>
<path d="M53 22H51V24H53V22Z" fill="#FFA733"/>
<path d="M8 6H6V8H8V6Z" fill="#ED1C24"/>
<path d="M12 6H10V8H12V6Z" fill="#ED1C24"/>
<path d="M16 6H14V8H16V6Z" fill="#ED1C24"/>
<path d="M58 52C58 51.4477 57.5523 51 57 51C56.4477 51 56 51.4477 56 52V55C56 55.5523 56.4477 56 57 56C57.5523 56 58 55.5523 58 55V52Z" fill="#FFB655"/>
<path d="M54 51C54 50.4477 53.5523 50 53 50C52.4477 50 52 50.4477 52 51V54C52 54.5523 52.4477 55 53 55C53.5523 55 54 54.5523 54 54V51Z" fill="#FFB655"/>
<path d="M50 51C50 50.4477 49.5523 50 49 50C48.4477 50 48 50.4477 48 51V54C48 54.5523 48.4477 55 49 55C49.5523 55 50 54.5523 50 54V51Z" fill="#FFB655"/>
</svg>
