<?xml version="1.0" encoding="iso-8859-1"?>

<!DOCTYPE svg PUBLIC "-//W3C//DTD SVG 1.1//EN" "http://www.w3.org/Graphics/SVG/1.1/DTD/svg11.dtd">
<!-- Uploaded to: SVG Repo, www.svgrepo.com, Generator: SVG Repo Mixer Tools -->
<svg version="1.1" id="_x35_" xmlns="http://www.w3.org/2000/svg" xmlns:xlink="http://www.w3.org/1999/xlink" 
	 viewBox="0 0 512 512"  xml:space="preserve">
<g>
	<g>
		<polygon style="fill:#D1D1D1;" points="339.616,406.221 172.383,406.221 178.277,280.714 333.723,280.714 		"/>
		<polygon style="fill:#B8B8B8;" points="337.457,365.251 174.543,365.251 178.273,285.937 333.727,285.937 		"/>
		<path style="fill:#DEDEDE;" d="M144.649,395.762h222.702c14.061,0,25.566,11.505,25.566,25.566l0,0H119.083l0,0
			C119.083,407.267,130.588,395.762,144.649,395.762z"/>
	</g>
	<path style="fill:#DEDEDE;" d="M512,186.345v157.36c0,6.291-5.093,11.385-11.309,11.385H11.31C5.093,355.09,0,349.996,0,343.705
		v-157.36c0-6.292,5.093-11.385,11.31-11.385h489.381C506.907,174.961,512,180.054,512,186.345z"/>
	<path style="fill:#3B3B3B;" d="M512,14.83v286.783H0V14.83h0.374C2.097,6.367,9.662,0,18.575,0h474.851
		c8.913,0,16.477,6.367,18.2,14.83H512z"/>
	<rect x="30.916" y="29.368" style="fill:#FFFFFF;" width="450.169" height="242.879"/>
	<g>
		<rect x="56.498" y="83.697" style="fill:#ACB6A9;" width="122.021" height="59.599"/>
		<rect x="196.822" y="83.697" style="fill:#ACB6A9;" width="122.021" height="59.599"/>
		<rect x="337.145" y="83.697" style="fill:#ACB6A9;" width="122.021" height="59.599"/>
		<rect x="56.498" y="152.883" style="fill:#ACB6A9;" width="69.726" height="11.33"/>
		<rect x="86.399" y="51.241" style="fill:#ACB6A9;" width="69.726" height="5.665"/>
		<rect x="56.498" y="234.52" style="fill:#ACB6A9;" width="69.726" height="11.33"/>
		<rect x="56.498" y="171.186" style="fill:#ACB6A9;" width="122.892" height="11.33"/>
		<rect x="56.498" y="192.249" style="fill:#ACB6A9;" width="122.892" height="11.33"/>
		<rect x="56.498" y="213.312" style="fill:#ACB6A9;" width="122.892" height="11.33"/>
		<rect x="199.001" y="152.883" style="fill:#ACB6A9;" width="69.726" height="11.33"/>
		<rect x="199.001" y="234.52" style="fill:#ACB6A9;" width="69.726" height="11.33"/>
		<rect x="199.001" y="171.186" style="fill:#ACB6A9;" width="122.892" height="11.33"/>
		<rect x="199.001" y="192.249" style="fill:#ACB6A9;" width="122.892" height="11.33"/>
		<rect x="199.001" y="213.312" style="fill:#ACB6A9;" width="122.892" height="11.33"/>
		<rect x="337.05" y="152.883" style="fill:#ACB6A9;" width="69.726" height="11.33"/>
		<rect x="337.05" y="234.52" style="fill:#ACB6A9;" width="69.726" height="11.33"/>
		<rect x="337.05" y="171.186" style="fill:#ACB6A9;" width="122.892" height="11.33"/>
		<rect x="337.05" y="192.249" style="fill:#ACB6A9;" width="122.892" height="11.33"/>
		<rect x="337.05" y="213.312" style="fill:#ACB6A9;" width="122.892" height="11.33"/>
		<path style="fill:#ACB6A9;" d="M72.808,48.087L72.808,48.087c3.306,3.306,3.306,8.667,0,11.973l0,0
			c-3.306,3.306-8.667,3.306-11.973,0l0,0c-3.306-3.306-3.306-8.667,0-11.973l0,0C64.141,44.78,69.502,44.78,72.808,48.087z"/>
		
			<rect x="427.059" y="50.075" transform="matrix(-0.7071 -0.7071 0.7071 -0.7071 697.6259 397.1127)" style="fill:#ACB6A9;" width="7.997" height="7.997"/>
		
			<rect x="446.452" y="50.075" transform="matrix(-0.7071 -0.7071 0.7071 -0.7071 730.731 410.8253)" style="fill:#ACB6A9;" width="7.997" height="7.997"/>
		
			<rect x="409.846" y="50.075" transform="matrix(-0.7071 -0.7071 0.7071 -0.7071 668.2405 384.9409)" style="fill:#ACB6A9;" width="7.997" height="7.997"/>
	</g>
</g>
</svg>