<?xml version="1.0" encoding="UTF-8"?><svg id="Layer_1" xmlns="http://www.w3.org/2000/svg" xmlns:xlink="http://www.w3.org/1999/xlink" viewBox="0 0 48 48"><defs><style>.cls-1{fill:url(#linear-gradient);}.cls-2{fill:url(#linear-gradient-3);}.cls-3{fill:url(#linear-gradient-2);}.cls-4{fill:url(#linear-gradient-4);}.cls-4,.cls-5,.cls-6,.cls-7,.cls-8{opacity:.5;}.cls-5{fill:url(#linear-gradient-8);}.cls-6{fill:url(#linear-gradient-5);}.cls-7{fill:url(#linear-gradient-6);}.cls-8{fill:url(#linear-gradient-7);}</style><linearGradient id="linear-gradient" x1="6.992" y1="7.335" x2="43.474" y2="37.227" gradientTransform="matrix(1, 0, 0, 1, 0, 0)" gradientUnits="userSpaceOnUse"><stop offset="0" stop-color="#edf1f2"/><stop offset="1" stop-color="#c6cbcc"/></linearGradient><linearGradient id="linear-gradient-2" x1="9.173" y1="9.775" x2="41.959" y2="35.328" gradientTransform="matrix(1, 0, 0, 1, 0, 0)" gradientUnits="userSpaceOnUse"><stop offset="0" stop-color="#c6cbcc"/><stop offset="1" stop-color="#9fa5a6"/></linearGradient><linearGradient id="linear-gradient-3" x1="-2.1" y1="22.814" x2="20.974" y2="45.888" gradientTransform="matrix(1, 0, 0, 1, 0, 0)" gradientUnits="userSpaceOnUse"><stop offset="0" stop-color="#4793eb"/><stop offset="1" stop-color="#2367ec"/></linearGradient><linearGradient id="linear-gradient-4" x1="2.821" y1="16.771" x2="26.446" y2="40.718" gradientTransform="matrix(1, 0, 0, 1, 0, 0)" gradientUnits="userSpaceOnUse"><stop offset="0" stop-color="#2b50d2"/><stop offset="1" stop-color="#182ea5"/></linearGradient><linearGradient id="linear-gradient-5" x1="2.912" y1="16.682" x2="26.537" y2="40.628" xlink:href="#linear-gradient-4"/><linearGradient id="linear-gradient-6" x1="2.942" y1="16.652" x2="26.567" y2="40.599" xlink:href="#linear-gradient-4"/><linearGradient id="linear-gradient-7" x1="2.881" y1="16.712" x2="26.506" y2="40.658" xlink:href="#linear-gradient-4"/><linearGradient id="linear-gradient-8" x1="2.851" y1="16.741" x2="26.476" y2="40.688" xlink:href="#linear-gradient-4"/></defs><rect class="cls-1" x="5" y="6" width="41" height="33" rx="5" ry="5"/><path class="cls-3" d="M42,31h-2V14h2c.552,0,1-.447,1-1s-.448-1-1-1h-2v-2c0-.553-.448-1-1-1s-1,.447-1,1v2H13v-2c0-.553-.448-1-1-1s-1,.447-1,1v2h-2c-.552,0-1,.447-1,1s.448,1,1,1h2V31h-2c-.552,0-1,.447-1,1s.448,1,1,1h2v2c0,.553,.448,1,1,1s1-.447,1-1v-2h25v2c0,.553,.448,1,1,1s1-.447,1-1v-2h2c.552,0,1-.447,1-1s-.448-1-1-1Zm-29,0V14h25V31H13Z"/><path class="cls-2" d="M27,38.586L5.414,17c-.573-.574-1.43-.745-2.179-.434-.75,.311-1.235,1.036-1.235,1.848v20.586c0,1.654,1.346,3,3,3H25.586c.812,0,1.537-.484,1.848-1.234s.141-1.605-.434-2.18Zm-20-1.586v-10l10,10H7Z"/><path class="cls-4" d="M5.661,21.661c-.256,0-.512-.098-.707-.293-.391-.391-.391-1.023,0-1.414l1.707-1.707,1.414,1.414-1.707,1.707c-.195,.195-.451,.293-.707,.293Z"/><path class="cls-6" d="M18.212,34.626c.195,.195,.451,.293,.707,.293s.512-.098,.707-.293l1.707-1.707-1.414-1.414-1.707,1.707c-.391,.391-.391,1.023,0,1.414Z"/><path class="cls-7" d="M24.339,35.925l-1.707,1.707c-.391,.391-.391,1.023,0,1.414,.195,.195,.451,.293,.707,.293s.512-.098,.707-.293l1.707-1.707-1.414-1.414Z"/><path class="cls-8" d="M13.793,28.793c-.391,.391-.391,1.023,0,1.414,.195,.195,.451,.293,.707,.293s.512-.098,.707-.293l1.707-1.707-1.414-1.414-1.707,1.707Z"/><path class="cls-5" d="M9.374,24.373c-.391,.391-.391,1.023,0,1.414,.195,.195,.451,.293,.707,.293s.512-.098,.707-.293l1.707-1.707-1.414-1.414-1.707,1.707Z"/></svg>