<?xml version="1.0" encoding="iso-8859-1"?>

<!DOCTYPE svg PUBLIC "-//W3C//DTD SVG 1.1//EN" "http://www.w3.org/Graphics/SVG/1.1/DTD/svg11.dtd">
<!-- Uploaded to: SVG Repo, www.svgrepo.com, Generator: SVG Repo Mixer Tools -->
<svg version="1.1" id="_x35_" xmlns="http://www.w3.org/2000/svg" xmlns:xlink="http://www.w3.org/1999/xlink" 
	 viewBox="0 0 512 512"  xml:space="preserve">
<g>
	<g>
		<path style="fill:#2D2D33;" d="M268.259,22.649v466.702c0,12.432-10.146,22.649-22.577,22.649H23.476
			c-1.429,0-2.787-0.143-4.144-0.429c-9.074-1.643-16.29-8.931-18.005-18.005c-0.286-1.357-0.429-2.787-0.429-4.216V22.649
			C0.899,10.217,11.044,0,23.476,0h222.205c1.572,0,3.072,0.143,4.572,0.5c8.717,1.786,15.719,8.788,17.505,17.505
			c0,0.072,0,0.072,0,0.072C268.116,19.577,268.259,21.077,268.259,22.649z"/>
		<path style="fill:#1E1F21;" d="M168.944,42.771h-68.731c-2.843,0-5.169-2.326-5.169-5.169v0c0-2.843,2.326-5.169,5.169-5.169
			h68.731c2.843,0,5.169,2.326,5.169,5.169v0C174.113,40.445,171.787,42.771,168.944,42.771z"/>
		<path style="fill:#121313;" d="M173.93,35.559c-0.861-0.701-1.953-1.122-3.145-1.122h-69.036c-2.755,0-5.018,2.254-5.018,5.018
			v0.301c0,0.671,0.14,1.312,0.391,1.903c-1.152-0.911-1.893-2.334-1.893-3.907v-0.3c0-2.765,2.264-5.019,5.018-5.019h69.036
			C171.375,32.433,173.178,33.726,173.93,35.559z"/>
		<circle style="fill:#1E1F21;" cx="134.579" cy="473.707" r="20.532"/>
		<path style="fill:#121313;" d="M152.574,460.949c-3.416-2.674-7.713-4.267-12.381-4.267c-11.099,0-20.104,9.005-20.104,20.114
			c0,4.658,1.583,8.945,4.247,12.351c-4.718-3.676-7.753-9.416-7.753-15.857c0-11.109,9.005-20.114,20.114-20.114
			C143.148,453.176,148.898,456.221,152.574,460.949z"/>
		<polygon style="opacity:0.3;fill:#F4F4F5;" points="18.327,66.043 18.327,380.991 18.327,381.492 18.327,434.414 250.83,434.414 
			250.83,381.492 250.83,380.991 250.83,66.043 		"/>
		<g>
			<linearGradient id="SVGID_1_" gradientUnits="userSpaceOnUse" x1="134.5788" y1="434.414" x2="134.5788" y2="66.0431">
				<stop  offset="0.1304" style="stop-color:#EBB2BF"/>
				<stop  offset="1" style="stop-color:#EBB2BF"/>
			</linearGradient>
			<rect x="18.327" y="66.043" style="fill:url(#SVGID_1_);" width="232.503" height="368.371"/>
			<rect x="18.327" y="381.492" style="opacity:0.2;fill:#F4F4F5;" width="232.503" height="52.922"/>
			<rect x="18.327" y="380.991" style="opacity:0.2;fill:#F4F4F5;" width="232.503" height="0.501"/>
			<rect x="18.327" y="380.991" style="opacity:0.2;fill:#F4F4F5;" width="232.503" height="0.501"/>
			<g style="opacity:0.4;">
				<rect x="50" y="127" style="fill:#F4F4F5;" width="172" height="79"/>
				<polygon style="fill:#F4F4F5;" points="128.914,227 50,227 50,220 148.947,220 				"/>
				<polygon style="fill:#F4F4F5;" points="151.952,106 93,106 93,99 171.986,99 				"/>
				<polygon style="fill:#F4F4F5;" points="207.045,256 50,256 50,249 227.078,249 				"/>
				<polygon style="fill:#F4F4F5;" points="207.045,285 50,285 50,270 227.078,270 				"/>
				<polygon style="fill:#F4F4F5;" points="207.045,306 50,306 50,299 227.078,299 				"/>
				<polygon style="fill:#F4F4F5;" points="207.045,335 50,335 50,327 227.078,327 				"/>
				<polygon style="fill:#F4F4F5;" points="185.008,356 50,356 50,349 205.041,349 				"/>
				<path style="fill:#F4F4F5;" d="M64.065,84.618l14.521,13.476c0.866,0.804,0.866,2.175,0,2.979l-14.521,13.476
					c-0.779,0.723-1.985,0.723-2.764,0L46.78,101.072c-0.866-0.804-0.866-2.175,0-2.979L61.3,84.618
					C62.08,83.894,63.285,83.894,64.065,84.618z"/>
				<g>
					<polygon style="fill:#F4F4F5;" points="203.004,78.252 206.505,81.501 203.004,84.75 199.502,81.501 					"/>
					<polygon style="fill:#F4F4F5;" points="214.337,78.252 217.838,81.501 214.337,84.75 210.835,81.501 					"/>
					<polygon style="fill:#F4F4F5;" points="191.671,78.252 195.172,81.501 191.671,84.75 188.169,81.501 					"/>
				</g>
			</g>
			<g>
				<path style="opacity:0.3;fill:#F4F4F5;" d="M48.059,427.903L48.059,427.903c-10.33,0-18.781-8.452-18.781-18.781l0,0
					c0-10.33,8.452-18.782,18.781-18.782l0,0c10.33,0,18.782,8.452,18.782,18.782l0,0C66.84,419.451,58.389,427.903,48.059,427.903z
					"/>
				<path style="opacity:0.3;fill:#F4F4F5;" d="M105.739,427.903L105.739,427.903c-10.33,0-18.782-8.452-18.782-18.781l0,0
					c0-10.33,8.452-18.782,18.782-18.782h0c10.33,0,18.781,8.452,18.781,18.782l0,0C124.52,419.451,116.069,427.903,105.739,427.903
					z"/>
				<path style="opacity:0.3;fill:#F4F4F5;" d="M163.419,427.903L163.419,427.903c-10.33,0-18.781-8.452-18.781-18.781l0,0
					c0-10.33,8.452-18.782,18.781-18.782l0,0c10.33,0,18.782,8.452,18.782,18.782l0,0
					C182.2,419.451,173.749,427.903,163.419,427.903z"/>
				<path style="opacity:0.3;fill:#F4F4F5;" d="M221.099,427.903L221.099,427.903c-10.33,0-18.782-8.452-18.782-18.781l0,0
					c0-10.33,8.452-18.782,18.782-18.782h0c10.33,0,18.781,8.452,18.781,18.782l0,0C239.88,419.451,231.429,427.903,221.099,427.903
					z"/>
			</g>
		</g>
	</g>
	<path style="opacity:0.1;fill:#F4F4F5;" d="M0.5,18.077c0,0,0,0,0-0.072C2.286,9.288,9.288,2.286,18.005,0.5
		c1.5-0.357,3.001-0.5,4.572-0.5H133.68v512H22.577C10.146,512,0,501.783,0,489.351V22.649C0,21.077,0.143,19.577,0.5,18.077z"/>
</g>
</svg>