<?xml version="1.0" encoding="iso-8859-1"?>
<!-- Generator: Adobe Illustrator 16.0.0, SVG Export Plug-In . SVG Version: 6.00 Build 0)  -->
<!DOCTYPE svg PUBLIC "-//W3C//DTD SVG 1.1//EN" "http://www.w3.org/Graphics/SVG/1.1/DTD/svg11.dtd">
<svg version="1.1" xmlns="http://www.w3.org/2000/svg" xmlns:xlink="http://www.w3.org/1999/xlink" x="0px" y="0px" width="520px"
	 height="520px" viewBox="0 0 520 520" style="enable-background:new 0 0 520 520;" xml:space="preserve">
<g id="_x32_97_x2C__Coding_x2C__programming_x2C__web">
	<g>
		<g>
			<polygon style="fill:#57606F;" points="100,40.5 100,120.5 480,120.5 480,80.5 480,40.5 			"/>
			<rect x="100" y="119.5" style="fill:#ECF0F1;" width="380" height="360"/>
			<polygon style="fill:#3C3B3D;" points="440,199.5 440,379.5 420,419.5 400,379.5 400,199.5 			"/>
			<rect x="400" y="159.5" style="fill:#64E1DB;" width="40" height="40"/>
			<polygon style="fill:#EF727A;" points="100,309.5 40,309.5 40,429.5 100,429.5 290,429.5 290,309.5 			"/>
			<rect x="300" y="139.5" style="fill:#E3835A;" width="20" height="20"/>
			<rect x="270" y="139.5" style="fill:#E3835A;" width="20" height="20"/>
			<rect x="250" y="389.5" style="fill:#DA5359;" width="20" height="20"/>
			<rect x="250" y="329.5" style="fill:#DA5359;" width="20" height="20"/>
			<rect x="240" y="139.5" style="fill:#E3835A;" width="20" height="20"/>
			<path style="fill:#E3835A;" d="M200,70.5c5.52,0,10,4.48,10,10s-4.48,10-10,10s-10-4.48-10-10S194.48,70.5,200,70.5z"/>
			<path style="fill:#80AF52;" d="M170,70.5c5.52,0,10,4.48,10,10s-4.48,10-10,10s-10-4.48-10-10S164.48,70.5,170,70.5z"/>
			<path style="fill:#FFD24D;" d="M140,70.5c5.52,0,10,4.48,10,10s-4.48,10-10,10s-10-4.48-10-10S134.48,70.5,140,70.5z"/>
			<rect x="60" y="389.5" style="fill:#DA5359;" width="20" height="20"/>
			<rect x="60" y="329.5" style="fill:#DA5359;" width="20" height="20"/>
			<path style="fill:#313A52;" d="M70,119.5c5.52,0,10,4.48,10,10s-4.48,10-10,10s-10-4.48-10-10S64.48,119.5,70,119.5z"/>
			<path style="fill:#313A52;" d="M70,149.5c5.52,0,10,4.48,10,10s-4.48,10-10,10s-10-4.48-10-10S64.48,149.5,70,149.5z"/>
			<path style="fill:#313A52;" d="M70,179.5c5.52,0,10,4.48,10,10s-4.48,10-10,10s-10-4.48-10-10S64.48,179.5,70,179.5z"/>
			<path style="fill:#313A52;" d="M70,209.5c5.52,0,10,4.48,10,10s-4.48,10-10,10s-10-4.48-10-10S64.48,209.5,70,209.5z"/>
			<path style="fill:#313A52;" d="M70,239.5c5.52,0,10,4.48,10,10s-4.48,10-10,10s-10-4.48-10-10S64.48,239.5,70,239.5z"/>
			<path style="fill:#313A52;" d="M70,269.5c5.52,0,10,4.48,10,10s-4.48,10-10,10s-10-4.48-10-10S64.48,269.5,70,269.5z"/>
			<path style="fill:#65B2FE;" d="M250,189.5H150c-5.523,0-10-4.477-10-10s4.477-10,10-10h100c5.523,0,10,4.477,10,10
				S255.523,189.5,250,189.5z"/>
			<path style="fill:#65B2FE;" d="M300,219.5H170c-5.523,0-10-4.477-10-10s4.477-10,10-10h130c5.522,0,10,4.477,10,10
				S305.522,219.5,300,219.5z"/>
			<path style="fill:#65B2FE;" d="M280,249.5H150c-5.523,0-10-4.477-10-10s4.477-10,10-10h130c5.522,0,10,4.477,10,10
				S285.522,249.5,280,249.5z"/>
			<path style="fill:#65B2FE;" d="M320,279.5H210c-5.523,0-10-4.478-10-10s4.477-10,10-10h110c5.522,0,10,4.478,10,10
				S325.522,279.5,320,279.5z"/>
			<path style="fill:#ECF0F1;" d="M120,399.5c-2.559,0-5.119-0.977-7.071-2.929l-20-20c-3.905-3.905-3.905-10.237,0-14.143l20-20
				c3.905-3.904,10.237-3.904,14.143,0c3.905,3.905,3.905,10.237,0,14.143L114.142,369.5l12.929,12.929
				c3.905,3.905,3.905,10.237,0,14.143C125.119,398.523,122.559,399.5,120,399.5z"/>
			<path style="fill:#ECF0F1;" d="M200,399.5c-2.559,0-5.119-0.977-7.071-2.929c-3.905-3.905-3.905-10.237,0-14.143l12.929-12.929
				l-12.929-12.929c-3.905-3.905-3.905-10.237,0-14.143c3.905-3.904,10.237-3.904,14.143,0l20,20c3.905,3.905,3.905,10.237,0,14.143
				l-20,20C205.119,398.523,202.559,399.5,200,399.5z"/>
			<path style="fill:#313A52;" d="M150.001,409.503c-1.048,0-2.114-0.166-3.164-0.516c-5.24-1.747-8.071-7.41-6.325-12.649l20-60
				c1.746-5.24,7.409-8.072,12.649-6.325s8.071,7.41,6.325,12.649l-20,60C158.09,406.853,154.188,409.503,150.001,409.503z"/>
		</g>
	</g>
</g>
<g id="Layer_1">
</g>
</svg>
